<?xml version="1.0" encoding="UTF-8" standalone="no"?>
<!-- Created with Inkscape (http://www.inkscape.org/) -->
<svg
   xmlns:dc="http://purl.org/dc/elements/1.1/"
   xmlns:cc="http://web.resource.org/cc/"
   xmlns:rdf="http://www.w3.org/1999/02/22-rdf-syntax-ns#"
   xmlns:svg="http://www.w3.org/2000/svg"
   xmlns="http://www.w3.org/2000/svg"
   xmlns:xlink="http://www.w3.org/1999/xlink"
   xmlns:sodipodi="http://inkscape.sourceforge.net/DTD/sodipodi-0.dtd"
   xmlns:inkscape="http://www.inkscape.org/namespaces/inkscape"
   height="297mm"
   width="210mm"
   id="svg2"
   sodipodi:version="0.32"
   inkscape:version="0.43"
   sodipodi:docbase="/home/staff/sheep"
   sodipodi:docname="musegarden.svg">
  <defs
     id="defs4">
    <linearGradient
       id="linearGradient7457">
      <stop
         style="stop-color:#ffee09;stop-opacity:1;"
         offset="0"
         id="stop7459" />
      <stop
         id="stop7465"
         offset="0.74000001"
         style="stop-color:#ffe209;stop-opacity:1;" />
      <stop
         style="stop-color:#c38100;stop-opacity:1;"
         offset="1"
         id="stop7461" />
    </linearGradient>
    <linearGradient
       id="linearGradient3066">
      <stop
         style="stop-color:#ffffff;stop-opacity:1;"
         offset="0"
         id="stop3068" />
      <stop
         style="stop-color:#d0d0d0;stop-opacity:1;"
         offset="1"
         id="stop3070" />
    </linearGradient>
    <linearGradient
       inkscape:collect="always"
       xlink:href="#linearGradient3066"
       id="linearGradient3082"
       gradientUnits="userSpaceOnUse"
       gradientTransform="translate(250.6973,259.1955)"
       x1="185.70705"
       y1="445.00488"
       x2="335.24319"
       y2="418.55576" />
    <linearGradient
       inkscape:collect="always"
       xlink:href="#linearGradient3066"
       id="linearGradient3963"
       x1="-7.7754736"
       y1="746.25305"
       x2="409.86877"
       y2="746.25305"
       gradientUnits="userSpaceOnUse" />
    <radialGradient
       inkscape:collect="always"
       xlink:href="#linearGradient7457"
       id="radialGradient7463"
       cx="422.78616"
       cy="529.72198"
       fx="422.78616"
       fy="529.72198"
       r="313.02896"
       gradientUnits="userSpaceOnUse" />
    <radialGradient
       inkscape:collect="always"
       xlink:href="#linearGradient7457"
       id="radialGradient8425"
       gradientUnits="userSpaceOnUse"
       cx="422.78616"
       cy="529.72198"
       fx="422.78616"
       fy="529.72198"
       r="313.02896" />
    <linearGradient
       inkscape:collect="always"
       xlink:href="#linearGradient3066"
       id="linearGradient8427"
       gradientUnits="userSpaceOnUse"
       gradientTransform="translate(250.6973,259.1955)"
       x1="185.70705"
       y1="445.00488"
       x2="335.24319"
       y2="418.55576" />
    <linearGradient
       inkscape:collect="always"
       xlink:href="#linearGradient3066"
       id="linearGradient8429"
       gradientUnits="userSpaceOnUse"
       x1="-7.7754736"
       y1="746.25305"
       x2="409.86877"
       y2="746.25305" />
  </defs>
  <sodipodi:namedview
     id="base"
     pagecolor="#ffffff"
     bordercolor="#666666"
     borderopacity="1.0"
     inkscape:pageopacity="0.0"
     inkscape:pageshadow="2"
     inkscape:cx="372.04724"
     inkscape:cy="526.18109"
     inkscape:zoom="0.70603069"
     inkscape:document-units="px"
     inkscape:current-layer="layer1"
     inkscape:window-width="1280"
     inkscape:window-height="933"
     inkscape:window-x="0"
     inkscape:window-y="29" />
  <metadata
     id="metadata7">
    <rdf:RDF>
      <cc:Work
         rdf:about="">
        <dc:format>image/svg+xml</dc:format>
        <dc:type
           rdf:resource="http://purl.org/dc/dcmitype/StillImage" />
      </cc:Work>
    </rdf:RDF>
  </metadata>
  <g
     inkscape:groupmode="layer"
     inkscape:label="Warstwa 1"
     id="layer1">
    <g
       id="g8413"
       transform="translate(162.8824,-14.16369)">
      <path
         id="path7487"
         d="M 186.2997,150.32947 C 130.33734,150.9141 77.581855,190.06384 60.331185,243.21882 C 43.131265,293.17694 58.116945,352.61564 97.791575,387.62501 C 110.20054,399.23021 125.59553,408.26214 140.89345,414.45447 C 136.44488,418.17837 129.97058,420.91521 127.89345,426.54822 C 137.54564,441.45688 149.16074,455.31531 160.18844,469.03147 C 167.6589,471.05202 171.74278,462.37749 177.62202,459.499 C 185.07708,453.73416 192.53214,447.96931 199.9872,442.20447 C 244.35178,448.48572 288.71637,454.76697 333.08095,461.04822 C 340.52633,458.66325 337.45045,449.22816 338.45595,443.36072 C 341.54544,405.29885 343.85403,367.10016 346.64345,328.98572 C 357.55416,319.92342 370.02679,312.33681 379.8726,302.23291 C 379.69705,294.83676 372.05725,290.28 368.56869,284.18382 C 360.99078,275.4989 355.42716,264.64009 346.39859,257.43669 C 338.57268,259.87251 332.43926,267.16957 325.5497,271.86072 C 320.11366,217.0024 278.0596,168.08242 224.58095,154.76697 C 212.11469,151.48773 199.20261,149.98831 186.2997,150.32947 z "
         style="fill:none;fill-opacity:1;stroke:#dddddd;stroke-width:43.93022919;stroke-linecap:round;stroke-linejoin:round;stroke-miterlimit:4;stroke-dasharray:none;stroke-opacity:1" />
      <g
         transform="translate(-2.832738,-1.416369)"
         id="g7473">
        <g
           id="g7467">
          <path
             transform="matrix(0.455268,0,0,0.455268,1.561862,47.06598)"
             d="M 713.85001 529.72198 A 291.06384 291.06384 0 1 1  131.72232,529.72198 A 291.06384 291.06384 0 1 1  713.85001 529.72198 z"
             sodipodi:ry="291.06384"
             sodipodi:rx="291.06384"
             sodipodi:cy="529.72198"
             sodipodi:cx="422.78616"
             id="path1307"
             style="fill:url(#radialGradient8425);fill-opacity:1;stroke:#000000;stroke-width:43.93022919;stroke-linecap:round;stroke-linejoin:round;stroke-miterlimit:4;stroke-dasharray:none;stroke-opacity:1"
             sodipodi:type="arc" />
          <path
             sodipodi:nodetypes="cscc"
             id="path2182"
             d="M 296.57563,287.96165 C 293.72104,234.47322 249.40345,191.92859 195.20741,191.92859 C 194.98851,191.92859 194.77153,191.92721 194.55296,191.92859 C 140.65576,192.27033 96.682243,234.68926 93.839183,287.96165"
             style="fill:none;fill-opacity:1;stroke:#000000;stroke-width:17.40418243;stroke-linecap:round;stroke-linejoin:round;stroke-miterlimit:4;stroke-dasharray:none;stroke-opacity:1" />
          <path
             style="fill:none;fill-opacity:1;stroke:#000000;stroke-width:17.4041481;stroke-linecap:round;stroke-linejoin:round;stroke-miterlimit:4;stroke-dasharray:none;stroke-opacity:1"
             d="M 173.39489,334.32154 C 172.77791,322.76087 163.19937,313.56553 151.48577,313.56554 C 151.43846,313.56554 151.39156,313.56524 151.34432,313.56554 C 139.69531,313.63939 130.19115,322.80757 129.57666,334.32154"
             id="path2187"
             sodipodi:nodetypes="cscc" />
          <path
             sodipodi:nodetypes="cscc"
             id="path2189"
             d="M 261.09139,334.32154 C 260.47441,322.76087 250.89588,313.56553 239.18228,313.56554 C 239.13496,313.56554 239.08806,313.56524 239.04083,313.56554 C 227.39182,313.63939 217.88765,322.80757 217.27316,334.32154"
             style="fill:none;fill-opacity:1;stroke:#000000;stroke-width:17.4041481;stroke-linecap:round;stroke-linejoin:round;stroke-miterlimit:4;stroke-dasharray:none;stroke-opacity:1" />
        </g>
        <g
           id="g3078"
           transform="matrix(0.671288,-0.179871,0.179871,0.671288,-169.0987,39.86326)">
          <path
             id="path2191"
             d="M 322.23149,674.2678 L 626.91689,543.72156 L 548.71177,770.69556 L 322.23149,674.2678 z "
             style="fill:url(#linearGradient8427);fill-opacity:1;fill-rule:evenodd;stroke:#000000;stroke-width:28.7782917;stroke-linecap:butt;stroke-linejoin:round;stroke-miterlimit:4;stroke-dasharray:none;stroke-opacity:1"
             sodipodi:nodetypes="cccc" />
          <rect
             transform="matrix(0.922784,-0.385318,0.385318,0.922784,0,0)"
             ry="0"
             rx="0"
             y="710.13562"
             x="6.6136799"
             height="72.234848"
             width="388.86594"
             id="rect3076"
             style="fill:url(#linearGradient8429);fill-opacity:1;stroke:#000000;stroke-width:28.77830696;stroke-linecap:round;stroke-linejoin:round;stroke-miterlimit:4;stroke-dasharray:none;stroke-opacity:1" />
        </g>
      </g>
    </g>
  </g>
</svg>
